<?xml version="1.0" standalone="no"?>
<!DOCTYPE svg PUBLIC "-//W3C//DTD SVG 20010904//EN"
 "http://www.w3.org/TR/2001/REC-SVG-20010904/DTD/svg10.dtd">
<svg version="1.0" xmlns="http://www.w3.org/2000/svg"
 width="2936.000000pt" height="2936.000000pt" viewBox="0 0 2936.000000 2936.000000"
 preserveAspectRatio="xMidYMid meet">
<metadata>
Created by potrace 1.14, written by Peter Selinger 2001-2017
</metadata>
<g transform="translate(0.000000,2936.000000) scale(0.100000,-0.100000)"
fill="#000000" stroke="none">
<path d="M14995 26598 c-44 -22 -51 -30 -98 -104 -46 -73 -50 -79 -114 -188
-32 -55 -68 -116 -80 -135 -29 -47 -86 -143 -122 -206 -36 -62 -57 -73 -149
-76 -69 -2 -75 0 -97 25 -20 24 -87 99 -174 195 -12 14 -56 62 -96 106 -40 44
-98 109 -130 145 -87 99 -114 115 -195 115 -60 0 -74 -4 -112 -30 -44 -31 -74
-80 -102 -165 -8 -25 -26 -76 -41 -115 -14 -38 -31 -86 -36 -105 -6 -19 -17
-48 -24 -65 -7 -16 -27 -73 -45 -125 -18 -52 -37 -99 -41 -105 -4 -5 -10 -27
-14 -47 -9 -47 -14 -51 -108 -83 l-78 -27 -42 28 c-23 16 -65 47 -93 69 -28
22 -61 47 -74 55 -12 8 -32 23 -44 32 -24 21 -82 64 -122 93 -45 33 -138 102
-155 117 -95 79 -201 90 -280 27 -56 -44 -77 -96 -100 -252 -23 -152 -52 -341
-73 -477 -9 -52 -15 -100 -16 -107 0 -6 -36 -32 -81 -58 l-81 -47 -62 30 c-33
17 -115 56 -181 87 -66 32 -165 79 -220 105 -180 87 -216 100 -264 100 -62 0
-118 -33 -158 -94 l-33 -48 0 -177 c1 -97 5 -277 10 -401 l9 -224 -57 -53
c-31 -29 -65 -55 -74 -58 -17 -6 -214 38 -322 70 -26 8 -56 15 -65 15 -9 0
-47 9 -86 19 -138 38 -240 61 -270 61 -45 -1 -125 -50 -157 -95 -33 -49 -44
-111 -30 -173 11 -46 32 -141 72 -317 11 -49 29 -130 40 -180 11 -49 24 -106
30 -125 19 -65 13 -87 -44 -158 l-53 -67 -114 6 c-63 4 -232 10 -376 14 l-262
8 -46 -28 c-28 -16 -58 -45 -76 -73 -37 -59 -40 -148 -8 -220 26 -57 29 -65
119 -272 39 -91 79 -181 87 -200 8 -19 22 -48 30 -65 45 -91 45 -100 7 -180
-19 -41 -41 -78 -47 -83 -7 -5 -37 -13 -67 -17 -30 -3 -71 -11 -91 -16 -20 -5
-81 -16 -135 -24 -323 -48 -439 -73 -482 -108 -53 -41 -81 -100 -81 -167 0
-76 14 -100 230 -410 29 -41 82 -118 117 -170 36 -52 71 -102 78 -111 8 -8 14
-24 14 -35 0 -10 -47 -68 -105 -129 -57 -60 -131 -137 -162 -171 -111 -116
-318 -337 -335 -357 -15 -17 -160 -170 -334 -352 -138 -145 -238 -256 -255
-284 -14 -23 -19 -50 -19 -105 0 -154 77 -270 414 -625 125 -132 1052 -1056
1386 -1381 362 -354 371 -362 368 -372 -3 -8 -751 -822 -3651 -3978 -1185
-1290 -2154 -2346 -2154 -2347 1 -1 81 5 177 13 96 8 1707 133 3580 279 1873
145 3428 267 3457 270 l51 6 1239 1337 c2681 2894 3284 3545 3472 3745 l194
207 158 0 c87 0 178 4 201 10 24 5 79 16 123 24 114 20 259 63 342 101 17 8
35 15 40 15 5 0 53 23 108 52 55 28 115 58 133 67 17 8 32 19 32 23 0 4 5 8
12 8 6 0 25 10 42 23 17 12 45 29 61 37 35 17 50 28 73 53 9 9 20 17 24 17 12
0 148 103 148 112 0 5 6 8 13 8 7 0 20 8 29 18 9 9 44 40 77 67 76 62 422 403
477 470 32 38 53 53 88 64 25 7 46 17 46 22 0 5 8 9 18 9 10 0 28 7 40 16 24
16 30 10 10 -10 -7 -7 -150 -178 -318 -381 -168 -202 -453 -535 -634 -739
-332 -374 -389 -439 -526 -595 -109 -124 -109 -124 -77 -112 17 7 28 7 32 0 4
-5 3 -9 -2 -8 -4 1 -15 1 -23 0 -28 -3 12 -21 47 -21 17 0 34 -6 36 -12 4 -10
6 -10 6 0 1 7 6 10 13 6 6 -4 8 -3 4 4 -8 13 12 27 40 27 13 1 20 -4 17 -11
-2 -7 5 -17 16 -24 14 -7 21 -7 21 0 0 6 7 6 19 -2 11 -7 17 -16 15 -20 -3 -4
6 -4 20 2 17 6 26 6 26 0 0 -6 -7 -10 -15 -10 -8 0 -15 -5 -15 -10 0 -6 13 -4
30 5 17 9 30 12 29 8 -3 -20 2 -24 16 -13 8 7 13 15 11 19 -4 5 21 9 76 12 9
0 19 7 22 15 3 7 12 11 21 8 8 -4 23 0 32 7 15 12 16 12 10 -5 -6 -15 -5 -17
6 -8 8 7 17 9 20 5 4 -3 7 -1 7 6 0 7 5 9 10 6 6 -3 10 -1 10 4 0 6 6 10 13 9
7 -2 11 5 10 17 -1 11 0 15 3 8 4 -9 14 -8 40 3 18 8 36 14 39 14 18 0 18 1 5
10 -13 8 -12 10 5 11 11 1 25 3 32 3 6 1 15 5 20 10 4 5 3 6 -4 2 -7 -4 -13
-2 -13 4 0 8 9 10 24 6 18 -4 28 -1 35 11 6 10 11 12 11 6 0 -7 5 -13 11 -13
6 0 9 7 5 15 -4 12 -2 13 15 2 15 -9 21 -9 27 0 4 6 20 17 35 22 21 8 26 8 21
-1 -4 -7 -3 -8 4 -4 7 4 12 14 12 22 0 8 5 15 10 15 6 1 15 3 20 4 6 1 15 3
20 4 6 0 10 9 11 19 0 14 2 14 8 -3 8 -19 8 -19 20 2 6 12 23 28 39 36 15 7
26 19 24 26 -1 7 2 10 8 6 6 -4 29 13 51 36 30 32 42 40 49 30 6 -10 10 -9 18
5 6 11 13 18 16 17 15 -7 26 -2 26 11 0 8 4 18 10 21 6 3 7 -1 4 -10 -5 -11
-2 -14 10 -9 9 3 14 9 12 13 -2 3 5 14 14 24 13 14 20 15 26 6 5 -8 3 -10 -6
-4 -9 5 -11 4 -6 -4 4 -6 12 -9 17 -5 6 3 8 8 5 11 -9 9 18 31 32 25 8 -2 16
4 19 17 3 11 11 21 18 21 22 0 173 -197 2220 -2900 819 -1081 1603 -2115 1743
-2299 172 -227 251 -339 247 -350 -25 -62 -435 -1245 -432 -1247 4 -4 2580
176 2585 181 2 2 -909 1238 -2025 2747 -4019 5434 -3957 5350 -3935 5362 9 5
19 12 22 15 8 9 60 38 103 57 20 9 37 20 37 24 0 5 10 12 22 16 25 8 81 45 86
57 2 4 8 7 14 7 5 0 28 13 51 28 23 16 62 42 87 58 25 16 50 34 57 39 13 11
34 28 114 88 31 23 71 53 89 67 194 146 463 426 620 643 33 45 63 87 67 92 5
6 16 22 25 36 9 15 39 37 65 50 26 12 50 25 53 28 3 3 21 14 40 24 62 31 165
90 170 97 3 4 21 15 40 25 18 10 39 23 46 29 6 6 22 18 34 26 12 8 52 39 89
67 36 29 68 48 70 42 2 -6 -1 -14 -7 -18 -6 -3 -13 -24 -17 -46 -4 -22 -13
-53 -21 -70 -7 -16 -27 -73 -45 -125 -17 -52 -35 -99 -39 -105 -4 -5 -13 -28
-20 -50 -7 -22 -16 -44 -20 -50 -4 -5 -13 -26 -19 -46 -6 -20 -20 -53 -31 -74
-11 -22 -20 -47 -20 -57 0 -10 -4 -18 -9 -18 -4 0 -14 -20 -21 -45 -7 -25 -16
-45 -20 -45 -4 0 -13 -20 -20 -45 -7 -25 -16 -45 -20 -45 -4 0 -13 -20 -20
-45 -7 -25 -17 -45 -21 -45 -5 0 -9 -5 -9 -11 0 -7 -47 -107 -104 -223 -121
-245 -156 -321 -156 -341 0 -7 -5 -17 -10 -20 -6 -4 -8 -11 -5 -16 4 -5 1 -9
-4 -9 -6 0 -11 -8 -11 -17 0 -10 -6 -30 -14 -44 -18 -35 -73 -205 -82 -255 -3
-21 -10 -44 -15 -50 -5 -6 -11 -37 -15 -69 -6 -47 -4 -57 7 -53 16 5 179 244
179 262 0 8 131 208 140 216 4 3 31 41 61 85 30 44 56 82 59 85 3 3 23 32 45
65 22 33 42 62 45 65 3 3 19 25 35 50 17 25 38 54 47 64 10 11 20 28 24 38 3
10 9 18 13 18 4 0 13 11 19 25 7 14 17 31 22 38 28 32 100 138 100 146 0 5 3
11 8 13 4 2 25 30 47 63 22 33 42 62 45 65 3 3 20 28 38 55 17 28 35 55 39 60
35 46 73 105 73 113 0 6 3 12 8 14 9 4 72 94 72 103 0 3 5 11 11 18 23 26 129
197 169 272 23 44 44 82 45 83 9 10 98 -64 112 -94 16 -32 15 -42 -4 -156 -12
-68 -28 -150 -37 -183 -33 -123 -98 -331 -116 -370 -5 -11 -14 -38 -20 -60 -7
-22 -18 -54 -26 -72 -8 -17 -14 -36 -14 -42 0 -6 -9 -28 -20 -48 -11 -21 -20
-45 -20 -53 0 -8 -6 -27 -14 -42 -8 -14 -19 -43 -26 -65 -7 -21 -16 -42 -20
-48 -4 -5 -11 -21 -15 -35 -8 -28 -20 -57 -59 -142 -14 -31 -26 -59 -26 -62 0
-12 -49 -119 -128 -281 -94 -191 -100 -204 -137 -295 -14 -36 -30 -74 -35 -85
-5 -11 -28 -76 -51 -145 -94 -286 -157 -620 -116 -620 12 0 49 38 74 76 42 63
65 100 123 194 36 58 71 114 78 125 7 11 20 35 29 53 9 17 20 32 25 32 4 0 8
6 8 14 0 8 6 21 13 28 7 7 34 43 59 79 26 37 78 111 117 165 39 55 76 108 83
118 7 10 29 40 48 65 19 25 48 66 65 91 16 25 39 57 50 71 11 14 26 35 33 45
7 10 35 51 62 89 27 39 54 77 60 85 66 95 153 218 163 230 7 8 36 51 66 95 29
44 56 82 60 85 3 3 41 57 84 120 89 131 143 210 155 225 14 19 167 245 177
263 13 22 161 248 187 285 31 45 88 157 114 226 33 87 34 217 3 268 -19 31
-76 81 -139 123 -12 8 -37 26 -55 40 -17 14 -43 33 -56 42 -44 32 -393 290
-435 322 -23 17 -52 38 -64 46 -19 13 -80 58 -155 115 -31 23 -236 174 -320
235 -49 36 -78 64 -81 80 -3 14 -10 40 -14 59 -8 31 4 68 30 91 3 3 20 28 38
55 41 63 45 69 88 130 20 28 61 88 92 135 31 47 60 90 65 95 44 54 96 138 107
169 17 53 8 146 -20 191 -30 48 -84 82 -150 95 -81 16 -272 49 -375 65 -49 7
-112 18 -140 24 -27 6 -75 14 -105 19 l-55 7 -42 81 -43 82 21 48 c11 27 28
67 38 89 11 22 27 58 36 80 10 22 26 58 35 80 129 288 180 418 180 455 0 73
-59 163 -129 196 -37 18 -172 17 -641 -2 l-145 -6 -45 58 c-25 32 -49 63 -53
71 -8 12 14 147 33 208 5 17 16 64 24 105 8 41 27 125 41 185 14 61 33 145 41
187 28 133 4 203 -90 266 -57 38 -96 41 -200 13 -94 -24 -154 -39 -251 -62
-44 -11 -116 -29 -160 -40 -44 -11 -111 -26 -149 -34 l-68 -15 -69 58 -70 57
6 145 c3 80 10 252 17 383 10 222 10 240 -7 280 -37 84 -109 137 -188 137 -44
0 -81 -14 -272 -105 -183 -87 -391 -187 -420 -201 -29 -15 -32 -14 -108 28
-50 27 -79 50 -81 63 -3 11 -11 65 -20 120 -9 55 -23 143 -32 195 -9 52 -22
138 -29 190 -28 207 -44 266 -83 306 -19 20 -50 43 -68 50 -43 18 -116 18
-157 0 -24 -10 -318 -224 -402 -293 -6 -4 -54 -41 -109 -82 l-98 -73 -86 28
-85 29 -35 95 c-18 52 -40 113 -47 135 -8 22 -26 72 -40 110 -15 39 -34 93
-42 120 -9 28 -19 55 -23 60 -4 6 -20 49 -35 97 -50 151 -128 212 -247 193
-39 -6 -118 -49 -118 -64 0 -3 -26 -34 -58 -68 -31 -34 -82 -90 -112 -124 -50
-56 -110 -124 -165 -185 -11 -12 -46 -51 -77 -86 l-57 -64 -88 8 c-95 9 -96
10 -121 56 -18 33 -123 211 -159 270 -13 21 -40 66 -60 100 -21 35 -48 80 -60
100 -12 21 -28 48 -35 62 -62 121 -180 170 -283 118z m-1118 -4803 c204 -102
284 -447 160 -690 -32 -62 -93 -131 -145 -162 -42 -25 -56 -28 -132 -28 -74 1
-90 4 -126 27 -147 94 -220 290 -194 516 18 150 74 253 175 317 60 39 72 42
151 44 46 1 72 -5 111 -24z m2751 8 c49 -23 125 -100 152 -153 47 -92 63 -161
64 -265 2 -249 -141 -445 -323 -445 -125 0 -237 100 -294 263 -33 93 -31 277
2 367 14 36 35 81 47 100 31 51 101 120 137 135 46 20 171 19 215 -2z m-7535
-1852 c11 -56 165 -287 294 -441 7 -8 23 -27 35 -42 13 -15 34 -44 48 -64 14
-19 34 -46 45 -59 11 -13 36 -42 55 -66 19 -23 47 -56 63 -74 15 -18 27 -36
27 -40 0 -4 10 -17 23 -29 12 -12 36 -39 52 -60 60 -77 140 -171 147 -174 5
-2 8 -8 8 -13 0 -6 11 -22 25 -37 29 -32 109 -128 230 -277 49 -60 95 -114
102 -118 7 -4 13 -14 13 -22 0 -8 6 -18 14 -22 13 -8 93 -105 126 -153 8 -12
34 -49 58 -81 52 -72 72 -36 -173 -302 l-179 -196 -55 97 c-30 53 -59 102 -63
107 -5 6 -41 60 -80 120 -40 61 -78 114 -85 118 -7 4 -13 13 -13 19 0 6 -7 18
-15 27 -29 31 -105 130 -105 137 0 4 -18 31 -40 60 -22 29 -40 56 -40 60 0 4
-11 22 -25 40 -14 18 -25 35 -25 38 0 3 -24 40 -52 83 -29 43 -60 92 -68 108
-8 17 -18 32 -21 35 -3 3 -21 32 -39 65 -19 33 -40 66 -46 73 -7 6 -16 22 -20
35 -4 12 -10 24 -14 27 -11 7 -110 186 -110 198 0 6 -4 12 -8 14 -5 2 -25 38
-46 81 -21 42 -42 80 -47 82 -4 3 -10 19 -14 35 -4 17 -10 30 -15 30 -5 0 -12
10 -16 23 -3 12 -17 47 -31 77 -14 30 -29 64 -34 75 -32 74 -61 169 -66 221
l-6 61 78 77 c43 42 83 76 90 76 7 0 15 -13 18 -29z m797 -251 c3 -3 23 -14
45 -24 22 -11 42 -22 45 -25 3 -3 37 -22 75 -41 39 -19 72 -38 73 -42 2 -5 9
-8 15 -8 6 0 29 -8 51 -19 112 -52 155 -71 160 -71 20 0 118 -54 131 -73 133
-190 289 -387 433 -547 32 -36 75 -83 94 -104 l35 -40 -231 -250 c-174 -188
-232 -245 -235 -230 -2 10 -11 37 -20 59 -10 22 -33 76 -52 120 -19 44 -37 82
-40 85 -3 3 -12 22 -20 43 -7 20 -16 37 -19 37 -4 0 -13 18 -20 40 -7 22 -17
40 -21 40 -4 0 -13 16 -20 35 -7 19 -16 35 -20 35 -4 0 -11 9 -14 21 -7 20
-44 81 -65 107 -6 7 -18 29 -27 50 -8 20 -18 39 -22 42 -7 6 -24 36 -72 130
-19 36 -36 67 -40 70 -3 3 -12 22 -20 43 -7 20 -16 37 -21 37 -4 0 -13 18 -19
40 -7 22 -16 40 -20 40 -5 0 -14 18 -20 40 -7 22 -16 40 -20 40 -5 0 -14 18
-20 40 -7 22 -16 40 -21 40 -4 0 -8 5 -8 10 0 6 -13 39 -29 74 -17 34 -33 74
-36 89 -4 15 -11 27 -15 27 -4 0 -11 11 -14 24 -3 13 -9 32 -13 41 -6 16 -4
16 23 -1 16 -10 31 -21 34 -24z m8890 -640 c-8 -5 -24 -16 -35 -25 -72 -57
-139 -105 -156 -110 -10 -4 -19 -10 -19 -15 0 -5 -16 -14 -35 -21 -19 -7 -35
-16 -35 -19 0 -4 -37 -12 -82 -20 -46 -7 -87 -16 -93 -20 -10 -7 -117 -30
-142 -30 -10 0 -13 19 -13 74 l0 74 33 7 c17 4 41 9 52 11 114 18 203 36 215
43 9 5 44 12 78 16 34 4 65 11 68 16 3 5 10 7 15 3 6 -3 18 -2 27 2 22 10 126
31 132 26 2 -1 -2 -7 -10 -12z m-7091 -36 c34 -3 61 -10 61 -14 0 -4 42 -13
93 -19 50 -7 101 -16 112 -21 11 -5 27 -9 35 -9 8 0 35 -4 60 -8 l45 -8 3 -48
c2 -32 -1 -49 -10 -52 -7 -2 -62 -10 -122 -18 -76 -9 -112 -10 -120 -3 -6 6
-29 23 -51 39 -53 36 -205 180 -183 173 9 -2 44 -8 77 -12z m5771 -2656 c0 -6
-3 -8 -7 -5 -3 4 -11 3 -17 -3 -7 -5 -17 -5 -26 0 -13 9 -13 10 0 11 8 1 18 1
23 0 4 0 7 4 7 10 0 5 5 7 10 4 6 -3 10 -11 10 -17z"/>
<path d="M18158 16683 c7 -3 16 -2 19 1 4 3 -2 6 -13 5 -11 0 -14 -3 -6 -6z"/>
<path d="M17154 16360 c0 -10 4 -16 8 -14 4 3 8 0 8 -5 0 -6 9 -11 21 -11 11
0 17 5 14 10 -4 6 -11 7 -17 4 -7 -4 -8 -2 -4 4 3 6 -2 15 -12 21 -14 7 -18 6
-18 -9z"/>
<path d="M17058 16343 c7 -3 16 -2 19 1 4 3 -2 6 -13 5 -11 0 -14 -3 -6 -6z"/>
<path d="M17350 13059 c-122 -31 -312 -133 -274 -146 31 -10 163 -96 234 -152
255 -201 432 -491 485 -798 19 -109 19 -346 0 -480 -49 -344 -200 -673 -409
-891 -89 -92 -89 -91 0 -117 84 -25 161 -35 314 -41 l145 -6 80 46 c448 260
724 736 725 1248 0 518 -233 948 -654 1203 -229 139 -451 185 -646 134z"/>
<path d="M12290 11095 c-145 -180 -211 -255 -225 -255 -31 0 -4969 -391 -4972
-394 -3 -3 1903 -5655 1910 -5662 7 -7 5443 253 5507 264 l46 7 -1025 3148
c-563 1731 -1027 3147 -1030 3147 -3 0 -98 -115 -211 -255z"/>
</g>
</svg>
